<svg height="504pt" viewBox="0 -108 504 504" width="504pt" xmlns="http://www.w3.org/2000/svg"><path d="m392 256h112v32h-112zm0 0" fill="#ffd2a6"/><path d="m392 256h112l-208-208h-112zm0 0" fill="#e8b489"/><path d="m392 288v-32l-208-208v32zm0 0" fill="#f2c397"/><path d="m208 256h112v32h-112zm0 0" fill="#ffd2a6"/><path d="m208 256h112l-208-208h-112zm0 0" fill="#f2c397"/><path d="m208 288v-32l-208-208v32zm0 0" fill="#e8b489"/><path d="m300 208h112v32h-112zm0 0" fill="#ffd2a6"/><path d="m300 208h112l-208-208h-112zm0 0" fill="#f2c397"/><path d="m300 240v-32l-208-208v32zm0 0" fill="#e8b489"/><path d="m270.824219 149.167969 58.824219 58.832031h-11.3125l-53.167969-53.167969c-12.089844-12.078125-22.527344-12.113281-28.734375-10.390625l-6.167969-6.183594c7.496094-3.257812 23.132813-6.503906 40.558594 10.910157zm0 0" fill="#e8b489"/><path d="m304 76c-1.023438 0-2.046875-.390625-2.832031-1.167969l-26.832031-26.832031h11.3125l21.175781 21.167969c1.558593 1.558593 1.558593 4.097656 0 5.65625-.777344.785156-1.800781 1.175781-2.824219 1.175781zm0 0" fill="#f2c397"/><g fill="#e8b489"><path d="m250.832031 221.167969 34.824219 34.832031h-11.3125l-29.167969-29.167969c-1.558593-1.558593-1.558593-4.097656 0-5.65625 1.558594-1.558593 4.089844-1.566406 5.65625-.007812zm0 0"/><path d="m234.351562 256-53.175781-53.167969c-1.558593-1.558593-1.558593-4.097656 0-5.65625 1.558594-1.558593 4.097657-1.558593 5.65625 0l58.832031 58.824219zm0 0"/><path d="m215.992188 44.015625c-1.023438 0-2.046876-.390625-2.832032-1.167969l-42.832031-42.847656h11.3125l37.175781 37.183594c1.558594 1.558594 1.558594 4.097656 0 5.65625-.777344.785156-1.800781 1.175781-2.824218 1.175781zm0 0"/><path d="m215.992188 83.984375c-1.023438 0-2.046876-.390625-2.832032-1.167969l-82.816406-82.816406h11.3125l77.167969 77.160156c1.558593 1.558594 1.558593 4.097656 0 5.65625-.785157.777344-1.808594 1.167969-2.832031 1.167969zm0 0"/><path d="m114.328125 86.488281c-1.023437 0-2.046875-.390625-2.832031-1.167969l-37.320313-37.320312h11.3125l31.664063 31.65625c1.558594 1.558594 1.558594 4.097656 0 5.65625-.777344.785156-1.800782 1.175781-2.824219 1.175781zm0 0"/></g></svg>